<svg viewBox="3.7259856 0 568.8000000000001 319.7117117117117" xmlns="http://www.w3.org/2000/svg" style="max-height: 500px" width="568.8000000000001" height="319.7117117117117"><path d="M0,192L14.1,197.3C28.2,203,56,213,85,229.3C112.9,245,141,267,169,240C197.6,213,226,139,254,133.3C282.4,128,311,192,339,181.3C367.1,171,395,85,424,58.7C451.8,32,480,64,508,106.7C536.5,149,565,203,593,213.3C621.2,224,649,192,678,154.7C705.9,117,734,75,762,96C790.6,117,819,203,847,250.7C875.3,299,904,309,932,304C960,299,988,277,1016,277.3C1044.7,277,1073,299,1101,298.7C1129.4,299,1158,277,1186,256C1214.1,235,1242,213,1271,213.3C1298.8,213,1327,235,1355,218.7C1383.5,203,1412,149,1426,122.7L1440,96L1440,320L1425.9,320C1411.8,320,1384,320,1355,320C1327.1,320,1299,320,1271,320C1242.4,320,1214,320,1186,320C1157.6,320,1129,320,1101,320C1072.9,320,1045,320,1016,320C988.2,320,960,320,932,320C903.5,320,875,320,847,320C818.8,320,791,320,762,320C734.1,320,706,320,678,320C649.4,320,621,320,593,320C564.7,320,536,320,508,320C480,320,452,320,424,320C395.3,320,367,320,339,320C310.6,320,282,320,254,320C225.9,320,198,320,169,320C141.2,320,113,320,85,320C56.5,320,28,320,14,320L0,320Z" fill-opacity="1" fill="#a2d9ff"/></svg>